<svg width="720" height="420" viewBox="0 0 720 420" fill="none" xmlns="http://www.w3.org/2000/svg">
  <defs>
    <linearGradient id="bg" x1="0" y1="0" x2="720" y2="420" gradientUnits="userSpaceOnUse">
      <stop stop-color="#2563EB"/>
      <stop offset="0.5" stop-color="#14B8A6"/>
      <stop offset="1" stop-color="#A855F7"/>
    </linearGradient>
    <linearGradient id="card" x1="140" y1="120" x2="560" y2="330" gradientUnits="userSpaceOnUse">
      <stop stop-color="#0F172A" stop-opacity="0.92"/>
      <stop offset="1" stop-color="#1E293B" stop-opacity="0.92"/>
    </linearGradient>
  </defs>
  <rect width="720" height="420" rx="24" fill="url(#bg)"/>
  <circle cx="602" cy="88" r="66" fill="#FDE047" fill-opacity="0.3"/>
  <circle cx="96" cy="330" r="88" fill="#38BDF8" fill-opacity="0.24"/>
  <rect x="140" y="92" width="440" height="236" rx="20" fill="url(#card)" stroke="#93C5FD" stroke-opacity="0.4"/>
  <rect x="172" y="134" width="170" height="14" rx="7" fill="#60A5FA"/>
  <rect x="172" y="162" width="250" height="10" rx="5" fill="#334155"/>
  <rect x="172" y="184" width="220" height="10" rx="5" fill="#334155"/>
  <rect x="172" y="220" width="376" height="70" rx="12" fill="#0B1220" stroke="#334155"/>
  <path d="M192 254C216 236 240 272 264 254C288 236 312 272 336 254C360 236 384 272 408 254C432 236 456 272 480 254C504 236 528 272 548 254" stroke="#22D3EE" stroke-width="6" stroke-linecap="round"/>
  <circle cx="372" cy="74" r="28" fill="#F43F5E"/>
  <path d="M372 58L377 69H389L379 76L383 88L372 81L361 88L365 76L355 69H367L372 58Z" fill="#FFF"/>
</svg>
